<svg xmlns="http://www.w3.org/2000/svg" width="24" height="24" viewBox="0 0 24 24">
  <g fill="none" fill-rule="evenodd" stroke="#051841" stroke-width="2" transform="translate(2 2)">
    <circle cx="10" cy="10" r="4"/>
    <path d="M14.9377878 14.9616785C16.211565 13.6939964 17 11.9390726 17 10M14.9594219 5.05994581C13.6919142 3.78749984 11.9379223 3 10 3 8.07141291 3 6.32498849 3.77993113 5.05892917 5.04159099 3.7870804 6.30902017 3 8.06259385 3 10 3 11.9351586 3.78525531 13.686911 5.05450481 14.9539961 6.32091825 16.21825 8.06916537 17 10 17M20 10C20 7.2178917 18.8638809 4.70113822 17.0302862 2.88838294 15.2239564 1.10258278 12.7407392 0 10 0M2.92464243 2.93322454C1.11751944 4.74252844 0 7.24075889 0 10M2.93344005 17.0755728C4.74272682 18.8825693 7.24086845 20 10 20 12.7389358 20 15.2206883 18.8988677 17.0267196 17.1151414"/>
  </g>
</svg>
