<svg xmlns="http://www.w3.org/2000/svg" width="24" height="24" viewBox="0 0 24 24">
  <g fill="#051841" transform="translate(0 4)">
    <path d="M8,0 C9.03804981,0 10.0299227,0.197707062 10.9400174,0.557520031 C10.2892197,0.999429207 9.70050746,1.52486993 9.18794208,2.11794922 C8.80446724,2.04051718 8.40696527,2 8,2 C4.6862915,2 2,4.6862915 2,8 C2,11.3137085 4.6862915,14 8,14 C11.3137085,14 14,11.3137085 14,8 C14,6.58359831 13.5092081,5.28182722 12.6884095,4.255472 C13.1907744,3.80920092 13.7843186,3.46371725 14.4372348,3.24907378 C15.4196933,4.57868516 16,6.22157364 16,8 C16,12.418278 12.418278,16 8,16 C3.581722,16 0,12.418278 0,8 C0,3.581722 3.581722,0 8,0 Z"/>
    <path d="M16,0 C20.418278,0 24,3.581722 24,8 C24,12.418278 20.418278,16 16,16 C14.9619502,16 13.9700773,15.8022929 13.0599826,15.44248 C13.7107803,15.0005708 14.2994925,14.4751301 14.8120579,13.8820508 C15.1955328,13.9594828 15.5930347,14 16,14 C19.3137085,14 22,11.3137085 22,8 C22,4.6862915 19.3137085,2 16,2 C12.6862915,2 10,4.6862915 10,8 C10,9.41640169 10.4907919,10.7181728 11.3115905,11.744528 C10.8092256,12.1907991 10.2156814,12.5362827 9.56276522,12.7509262 C8.58030669,11.4213148 8,9.77842636 8,8 C8,3.581722 11.581722,0 16,0 Z"/>
  </g>
</svg>
