<svg xmlns="http://www.w3.org/2000/svg" width="18" height="18" viewBox="0 0 18 18">
  <path fill="#051841" d="M10,3 C13.8659932,3 17,6.13400675 17,10 C17,11.5763766 16.478928,13.0310504 15.5996286,14.2011767 C15.6038133,14.2027022 15.608368,14.2061812 15.6128994,14.2097046 L15.7071068,14.2928932 L20.7071068,19.2928932 C21.0976311,19.6834175 21.0976311,20.3165825 20.7071068,20.7071068 C20.3466228,21.0675907 19.7793918,21.0953203 19.3871006,20.7902954 L19.2928932,20.7071068 L14.2928932,15.7071068 C14.2586889,15.6729024 14.2274804,15.6368368 14.1992676,15.5992358 C13.0310504,16.478928 11.5763766,17 10,17 C6.13400675,17 3,13.8659932 3,10 C3,6.13400675 6.13400675,3 10,3 Z M10,5 C7.23857625,5 5,7.23857625 5,10 C5,12.7614237 7.23857625,15 10,15 C12.7614237,15 15,12.7614237 15,10 C15,7.23857625 12.7614237,5 10,5 Z" transform="translate(-3 -3)"/>
</svg>
